<svg xmlns="http://www.w3.org/2000/svg" width="24" height="24" fill="none"><path fill="#555" fill-rule="evenodd" d="M10.775 5.2a.525.525 0 0 0-.525.525v.447h2.966v-.447a.525.525 0 0 0-.524-.525h-1.917Zm-1.725.525v.447h-4.4a.65.65 0 1 0 0 1.3h1.067V17.6a2.267 2.267 0 0 0 2.266 2.266h7.362A2.267 2.267 0 0 0 17.61 17.6V7.472h1.206a.65.65 0 1 0 0-1.3h-4.4v-.447c0-.953-.773-1.725-1.726-1.725h-1.916c-.953 0-1.725.772-1.725 1.725Zm7.361 1.747H6.917V17.6c0 .589.477 1.066 1.066 1.066h7.362c.589 0 1.066-.477 1.066-1.066V7.472Zm-6.578 2.795a.6.6 0 0 0-1.2 0v5.972a.6.6 0 1 0 1.2 0v-5.973Zm1.9-.6a.6.6 0 0 1 .6.6v5.972a.6.6 0 1 1-1.2 0v-5.973a.6.6 0 0 1 .6-.6Zm3.1.6a.6.6 0 1 0-1.2 0v5.972a.6.6 0 1 0 1.2 0v-5.973Z" clip-rule="evenodd"/></svg>